<?xml version="1.0" encoding="UTF-8"?>
<svg id="Layer_1" data-name="Layer 1" xmlns="http://www.w3.org/2000/svg" version="1.1" viewBox="0 0 248.4 335">
  <defs>
    <style>
      .cls-1 {
        fill: #c9c9c9;
      }

      .cls-1, .cls-2, .cls-3, .cls-4, .cls-5, .cls-6 {
        stroke-width: 0px;
      }

      .cls-2 {
        fill: #fdc168;
      }

      .cls-3 {
        fill: #fba919;
      }

      .cls-4 {
        fill: #463014;
      }

      .cls-5 {
        fill: #e78724;
      }

      .cls-6 {
        fill: #fff;
      }
    </style>
  </defs>
  <path class="cls-3" d="M16,81.4s5.7,22.1,6.6,29.5c.8,7.4-14.8,23.8-14.8,32s3.3,22.9,21.3,30.3c18,7.4,20.5,26.2,20.5,37.7s-6.6,33.6-6.6,33.6c0,0-4.1,54.9,18,64.7,22.1,9.8,17.2,9.8,22.1,9.8s41,14.8,62.3,9c21.3-5.7,27-12.3,27-12.3,0,0,21.3,1.6,27.9-17.2,6.6-18.8,10.7-58.2,8.2-76.2s-5.7-41.8,9-50c14.8-8.2,30.3-18,27.9-26.2s-15.6-19.7-15.6-19.7c0,0-3.3-20.5-.8-25.4,2.5-4.9,17.2-17.2,9-26.2-8.2-9-23-9-23-9l-18.8,1.6s-31.9-28.7-73.7-27.1c-41.8,1.6-68,27-68,27,0,0-13.9-4.9-26.2,0-12.3,4.9-14.8,0-12.3,13.9h0Z"/>
  <path class="cls-5" d="M90.9,203.4s-16.2,24.8-28.1,42.4c-1.8,2.7,11.9,2.9,11.9,2.9l16.2-45.3h0ZM98.6,152s-4.9,12.2-7.6,18.7c-2.9,7-14,10.5-14,10.5,0,0,5.8-6,5.8-21.3s8.3-8.9,8.3-8.9l7.6,1.1h0Z"/>
  <path class="cls-5" d="M93.7,158.9s-10,11.9-28.6,5.2c-18.6-6.7-20.5-30.5-20.5-37.2s35.3,6.7,40.1,9.5,13.8,14.3,9.1,22.4M23.4,31.4s17.2-3.3,28.6,5.7c11.5,9.1,14.8,16.2,14.8,16.2l-19.3,15.3s-9.3-4.3-12.2-16.7c-2.9-12.4-1-18.1-11.9-20.5"/>
  <path class="cls-5" d="M88.7,124.4c-7.4-10.5-19.6-15.1-29.3-15.8-16.6-1.3-24.5,4.6-24.5,4.6,0,0,27.2,1.2,35,11.4,14.6,19.2,35.9,20.7,39.3,16.5-3.9.2-8.3-1.8-12.9-6.1-2.9-2.7-5.2-7.2-7.6-10.5h0ZM42.8,161.6s-30.2-10.4-24.4-20.9c5.7-10.5,1.2-16.2,1.2-16.2,0,0-16.8,12.6-12.5,25.9,2.6,8.2,7.1,14.1,31.4,25.5,11.7,21.6,2.4,60.6,3,60.8.9.3,16.4-7.6,15.3-44.1-.3-11.2-1.2-26.5-13.8-31.1h0ZM82.3,50.1c-12.6,6.4-30,15.4-30,15.4l6.8,3.4c-.7,1.1-1,1.7-1,1.7l7,3.2s17.1,12.4,27.6,20.3c-3.5-10.7-13.7-27.6-13.7-27.6,0,0-2.9-7.8,3.3-16.3h0ZM124.3,311.9c-38.9,0-52-19.7-52-19.7l6.1,14.8c2.3,6.4,26.8,26.3,45.9,26.3"/>
  <path class="cls-5" d="M76.5,278.9s3.6,21.9,17.9,21.9,15.8-18.5,15.8-22.3l-33.6.4h0ZM52.7,245.9c1.3-3.5,5.7-17.7,7.2-30.5,1.7-15.4,1.1-38,1.1-38,0,0-3.8,14.8-7.2,17.2-3.3,2.4-9.6,18.6-9.6,18.6,0,0-3.3,24.2-4.9,32.3,4.4.9,8.1-1.7,13.4.5h0ZM18.1,150.2s8.1-2.9,10.5-20.5c2.4-17.7-2.9-32.9-2.9-32.9,0,0,.5,24.3-2.4,29.1-2.9,4.8-5.2,6.2-8.6,12.4s1.4,10,3.3,11.9"/>
  <path class="cls-2" d="M27.8,35.6l-1.7-1c-4.9.2,1.7,1,1.7,1h0Z"/>
  <path class="cls-3" d="M88.9,44.8s-7.6-1.3-11.5-7c-3.8-5.7-14.6-17.2-31.9-17.3-17.2-.1-34.3,4.6-34.3,4.6l14.9,9.4c1.6,0,4.3,0,8.9.1,18.7.6,21.6,19.1,21.6,19.1l65.9-9.1"/>
  <path class="cls-6" d="M95.3,146.9s-8.9,8.9-22.6,6c-13.7-2.9-22-8.9-22.6-19.4-.6-10.5,2.9-14.6,2.9-14.6,0,0,15.3,4.8,22.6,11.1,7.3,6.4,12.7,16.6,19.7,16.9h0Z"/>
  <path class="cls-1" d="M84.5,143.8s-7.7,3.5-16.4.7c-11.3-3.8-12.1-15.5-12.1-15.5,0,0-6.9,20.4,12.5,24.3,15.6,3.1,24.8-5.9,24.8-5.9l-8.9-3.5h0Z"/>
  <path class="cls-4" d="M90,40.5c-.8-17.5,13.5-31.4,18.4-32,.3,3-.3,14.5,4.7,18,1.4-9.4,6.3-19.8,25.6-26.6-4.1,10.9-.6,20.1,1.2,24.4,13.2-11.9,22-10,22-10,0,0-9.1,15.8-5.6,26.1-26.4-2.1-66.2,2.8-66.3,0M34,67.1c-6.3-5.2-1.6-10.1-2.1-16-.3-3.2-.5-6.1-1.6-7.8-5.8-9.2-19.5-11.9-19.6-12l-6.4-1.3,4.2-5c.5-.6,18-17.3,45-8.6,18.9,6.1,32.9,26.8,33.4,27.6l-9.5,4.5c-.1-.2-11.2-19.6-27.4-24.8-13.1-4.2-25.2-.2-30.4,2.4,5.5,2.2,12.7,6.2,17,13,2.1,3.2,2.4,7.3,2.7,11.2.4,5.2.8,10.1,4.7,13.3l-10.2,3.3h0ZM17.1,143.4s7.9-9.8,10.3-29c.9-7.5-.7-22.4-3.3-28.2.5,14.1-3.1,28.2-3.1,28.2,0,0-2.4,26.1-3.8,29h0Z"/>
  <path class="cls-4" d="M59,57.2s-2.5-11.1-9.6-16.8c-9.9-7.9-22.1-3.7-22.2-3.7l-1.8-5.5c.6-.2,14.5-4.6,27.3,4.4,12.9,9,14.4,17.2,14.6,18.2l-8.2,3.3h0ZM42.1,136.4s-4.2-6-3.4-12.5c.4-3.2,1.9-6.6,4.6-7.7,5-2.2,7.2,3.5,7.2,3.5,0,0-7,1.7-8.3,16.8h0Z"/>
  <path class="cls-4" d="M87.8,145.5c.2.3.3.5.3.5,0,0-13,9.8-26.3-.1-7.1-5.3-6.5-18.4-4.3-24,5.7,1.3,10.5,3.6,14.5,6.3-5.1-4.5-9.5-7.9-9.5-8l-5.8-1.6-11.2-3.8c-.1.9-4.2,20.1,7.6,33.2,5.2,5.8,29.8,18.8,41.5-3.4l-6.8,1h0Z"/>
  <path class="cls-4" d="M86.6,146.9c7.3,11.1,25.8,4.8,25.5-7,0,0-12.3,6.8-23.2-5.7-6.4-7.3-26.8-27.5-54.4-20.8,19.1,4.2,44.4,21.6,52.2,33.5h0Z"/>
  <path class="cls-4" d="M31.9,178.3c1.8,1,8,7.4,8,17.1,0,4.8-.5,29-2.9,43.8,3.6,2.3,6.1,2.8,9.7,5.2,1.8-17.1,3.1-42,2.5-52-.7-11.4-6.8-19.1-12.5-22.4-1.8-1-3.6-2-5.5-3-9.7-5.3-19.8-10.7-19.8-20s2.8-9.5,5.8-11.9l.3-.3c2-1.6,4.2-3.4,5.6-6.4,3.6-8.2,4.2-28.9,0-34.2-2.1-2.6-7.7-11.5-6.1-17.4.6-2.3,2.1-3.9,4.4-5.1,2.5-1.3,5.8-1.9,9.9-1.9,8,0,16.9,2.4,21.5,3.9,16.4,5.2,36.2,20.2,41.9,24.7l.3.2,3.6,2.5-2.3-3.8c-.1-.2-14.5-23.9-40.3-32.6-5-1.7-14.8-4.5-24.5-4.5s-10.6,1-14.5,3c-4.7,2.4-7.9,6.3-9.2,11.1-3.2,11.9,7.3,25.2,7.7,25.6,1.2,2.2,1.8,18.2-1.1,24.6-.4.9-1.5,1.8-2.8,2.8-.4.3-.9.7-1.4,1.1-4,3-10.1,7.6-10.1,18.2s14.7,22.3,26.5,28.6c1.9,1,3.8,2,5.4,3h0Z"/>
  <path class="cls-4" d="M34,67.1c-6.3-5.2-1.6-10.1-2.1-16-.3-3.2-.5-6.1-1.6-7.8-5.8-9.2-19.5-11.9-19.6-12l-6.4-1.3,4.2-5c.5-.6,18-17.3,45-8.6,18.9,6.1,32.9,26.8,33.4,27.6l-9.5,4.5c-.1-.2-11.2-19.6-27.4-24.8-13.1-4.2-25.2-.2-30.4,2.4,5.5,2.2,12.7,6.2,17,13,2.1,3.2,2.4,7.3,2.7,11.2.4,5.2.8,10.1,4.7,13.3l-10.2,3.3h0Z"/>
  <path class="cls-4" d="M33.8,68.2l-.4-.3c-4.7-3.9-3.8-7.7-3-11.4.4-1.7.8-3.5.6-5.3-.3-3-.5-5.9-1.4-7.4-5.5-8.7-18.9-11.5-19-11.5l-8-1.6,5.3-6.2c0-.1,11.3-11.4,30.3-11.4s10.5.9,15.8,2.6c19.7,6.4,33.8,27.8,33.9,28l.6.9-11.2,5.3-.4-.7c-1.2-2-11.8-19.6-26.9-24.4-3.7-1.2-7.6-1.8-11.6-1.8-7.2,0-13,2-16.2,3.3,5.2,2.3,11.5,6.3,15.5,12.6,2.2,3.4,2.5,7.6,2.9,11.7.4,5,.8,9.8,4.3,12.7l1.3,1.1-12.3,4.1h0Z"/>
  <path class="cls-4" d="M59,57.2s-2.5-11.1-9.6-16.8c-9.9-7.9-22.1-3.7-22.2-3.7l-1.8-5.5c.6-.2,14.5-4.6,27.3,4.4,12.9,9,14.4,17.2,14.6,18.2l-8.2,3.3h0Z"/>
  <path class="cls-4" d="M58.3,58.5l-.2-1.1c0-.1-2.5-10.8-9.3-16.2-3.8-3.1-8.5-4.6-13.8-4.6s-7.2,1-7.5,1.1l-.9.3-2.4-7.3.9-.3c.4-.1,4.1-1.3,9.3-1.3s13.4,2,18.8,5.8c13.2,9.3,14.8,17.8,14.9,18.8v.8c.1,0-9.9,4-9.9,4h0ZM35,34.7c5.7,0,10.8,1.7,15,5,6,4.8,8.8,13.2,9.7,16.2l6.5-2.6c-.6-2.3-3.2-9.2-14-16.8-5.2-3.6-11.1-5.5-17.7-5.5s-6.4.6-7.8.9l1.2,3.6c1.4-.4,4-.9,7.2-.9M93.8,295.5c-2.8,0-5.7-1-7.7-2.8-1.5-1.3-6.7-6.1-9-11.9-.9-2.2-.7-3.9.6-5.2.9-.9,2.6-1.9,6.2-1.9h2.5c3,0,8.1,0,12.5,0h4.2c2.7,0,4.7.6,5.8,1.7,1.4,1.5,1,3.4.6,4.4-.7,1.7-3.6,7.4-8.5,12.6-1.8,1.9-4.3,2.9-7.2,2.9h0ZM96.8,147.6l-10.2-.7s2.6,4.6,4.3,10.5c1.9,6.7-1.7,16.5-1.7,16.5,0,0,13.6-15.4,7.6-26.4h0ZM84.1,322.4c-36.2-2.8-49-37-49-44.2h9.5s-4.7,0-4.7,0h4.7c0,3.1,9.7,32.4,40.2,34.7l-.7,9.4h0Z"/>
  <path class="cls-6" d="M73.9,261c-.6-3.3-.6-6.4,0-9.4-2.8-2.1-7.7-2.8-11.4-4.1-3-1.9-18.5,2-29.8-11.7-14.1-17.1-11.1-27.2-11.1-27.2-3.6,4-7.1,2.5-12.6,21.2s2.6,31.8,17.7,44.9c7.1,6.2,17.2,8.7,25.9,9.7-2.9-2.9,5-3.2,10.4-5.2-.4-4.4.3-8.6,3.6-12.1,2-2.1,4.5-3.3,7.1-4.3.2-.3.3-.6.4-1,0-.3-.2-.6-.2-.9h0Z"/>
  <path class="cls-1" d="M62.9,279.1c-.3-.9-.6-1.9-.8-2.8-.2-1-1.5-4,0-.6-.4-.9-.7-1.7-.8-2.6-24.5,0-45.8-16.8-41.7-52.2-3.2-4.3-7.7,8.6-7.7,8.6,0,0-12.2,35.6,19.4,49.4,10.6,4.6,19.9,7.9,22.1,6.6,4.6.9,8.7-2.3,10.3-4.4-.3-.6-.5-1.3-.8-1.9h0Z"/>
  <path class="cls-4" d="M73.5,255.9c0-3,.6-5.9,2.1-8.8,0-.2.2-.4.3-.6-9.4,0-20.3-1-29.5-4.7-10.2-4.1-22.8-18-25-34.3,0,0-19.1,14.8-13.5,46.3,5.3,29.7,30.1,39.3,58.4,41,0-.2-3.2-6.8-2.2-10.8-16.1,1.2-34-5-42.7-19.3-7.9-13.1-5.7-35.4-2.4-38.6,8,25.1,36.6,30.2,54.6,29.8h0Z"/>
  <path class="cls-4" d="M76.4,237.9c-5.1,14.9-15.5,27-15.5,27,0,0,14.3-.7,15.1-3.2.6-1.9,12.9-30.8,17.7-64.6-4.5,7.3-16.8,39.4-17.3,40.7h0Z"/>
  <path class="cls-5" d="M157.5,203.4s16.2,24.8,28.1,42.4c1.8,2.7-11.9,2.9-11.9,2.9l-16.2-45.3ZM149.8,152s4.9,12.2,7.6,18.7c2.9,7,14,10.5,14,10.5,0,0-5.8-6-5.8-21.3s-8.3-8.9-8.3-8.9l-7.5,1.1h0Z"/>
  <path class="cls-5" d="M154.7,158.9s10,11.9,28.6,5.2,20.5-30.5,20.5-37.2-35.3,6.7-40.1,9.5c-4.8,2.9-13.8,14.3-9.1,22.4M225,31.4s-17.2-3.3-28.6,5.7c-11.5,9.1-14.8,16.2-14.8,16.2l19.3,15.3s9.3-4.3,12.2-16.7c2.9-12.4,1-18.1,11.9-20.5h0Z"/>
  <path class="cls-5" d="M159.7,124.4c7.4-10.5,19.6-15.1,29.3-15.8,16.6-1.3,24.5,4.6,24.5,4.6,0,0-27.2,1.2-35,11.4-14.6,19.2-35.9,20.7-39.3,16.5,3.9.2,8.3-1.8,12.9-6.1,2.9-2.7,5.2-7.2,7.6-10.5h0ZM205.6,161.6s30.2-10.4,24.4-20.9c-5.7-10.5-1.2-16.2-1.2-16.2,0,0,16.8,12.6,12.5,25.9-2.6,8.2-7.1,14.1-31.4,25.5-11.7,21.6-2.4,60.6-3,60.8-.9.3-16.4-7.6-15.3-44.1.3-11.2,1.2-26.5,13.8-31.1h0ZM166.1,50.1c12.6,6.4,30,15.4,30,15.4l-6.8,3.4c.6,1.1,1,1.7,1,1.7l-7,3.2s-17.1,12.4-27.6,20.3c3.5-10.7,13.7-27.6,13.7-27.6,0,0,2.9-7.8-3.3-16.3h0ZM124.1,311.9c38.9,0,52-19.7,52-19.7l-6.1,14.8c-2.3,6.4-26.8,26.3-45.9,26.3"/>
  <path class="cls-5" d="M171.9,278.9s-3.6,21.9-17.9,21.9-15.8-18.5-15.8-22.3l33.6.4ZM195.7,245.9c-1.3-3.5-5.7-17.7-7.2-30.5-1.7-15.4-1.1-38-1.1-38,0,0,3.8,14.8,7.2,17.2,3.3,2.4,9.5,18.6,9.5,18.6,0,0,3.3,24.2,4.9,32.3-4.4.9-8.1-1.7-13.4.5h0ZM230.3,150.2s-8.1-2.9-10.5-20.5c-2.4-17.7,2.9-32.9,2.9-32.9,0,0-.5,24.3,2.4,29.1,2.9,4.8,5.2,6.2,8.6,12.4,3.3,6.2-1.4,10-3.3,11.9h0Z"/>
  <path class="cls-2" d="M220.6,35.6l1.7-1c4.9.2-1.7,1-1.7,1"/>
  <path class="cls-3" d="M159.5,44.8s7.6-1.3,11.5-7c3.8-5.7,14.6-17.2,31.9-17.3,17.2-.1,34.3,4.6,34.3,4.6l-14.9,9.4c-1.6,0-4.3,0-8.9.1-18.7.6-21.6,19.1-21.6,19.1l-65.9-9.1"/>
  <path class="cls-6" d="M153.1,146.9s8.9,8.9,22.6,6c13.7-2.9,22-8.9,22.6-19.4.6-10.5-2.9-14.6-2.9-14.6,0,0-15.3,4.8-22.6,11.1-7.3,6.4-12.7,16.6-19.7,16.9h0Z"/>
  <path class="cls-1" d="M163.9,143.8s7.7,3.5,16.4.7c11.3-3.8,12.1-15.5,12.1-15.5,0,0,6.9,20.4-12.5,24.3-15.6,3.1-24.8-5.9-24.8-5.9l8.9-3.5h0Z"/>
  <path class="cls-4" d="M214.4,67.1c6.3-5.2,1.6-10.1,2.1-16,.3-3.2.5-6.1,1.6-7.8,5.8-9.2,19.5-11.9,19.6-12l6.4-1.3-4.2-5c-.5-.6-18-17.3-45-8.6-18.9,6.1-32.9,26.8-33.4,27.6l9.5,4.5c.1-.2,11.2-19.6,27.4-24.8,13.1-4.2,25.2-.2,30.3,2.4-5.5,2.2-12.7,6.2-17,13-2,3.2-2.4,7.3-2.7,11.2-.4,5.2-.9,10.1-4.7,13.3l10.2,3.3h0ZM231.3,143.4s-7.9-9.8-10.3-29c-.9-7.5.7-22.4,3.3-28.2-.5,14.1,3.1,28.2,3.1,28.2,0,0,2.4,26.1,3.8,29"/>
  <path class="cls-4" d="M189.4,57.2s2.6-11.1,9.6-16.8c9.9-7.9,22.1-3.7,22.2-3.7l1.8-5.5c-.6-.2-14.5-4.6-27.3,4.4-12.9,9-14.4,17.2-14.6,18.2l8.2,3.3h0ZM206.3,136.4s4.2-6,3.4-12.5c-.4-3.2-1.9-6.6-4.5-7.7-5-2.2-7.2,3.5-7.2,3.5,0,0,7,1.7,8.3,16.8h0Z"/>
  <path class="cls-4" d="M160.6,145.5c-.2.3-.3.5-.3.5,0,0,13,9.8,26.3-.1,7.1-5.3,6.5-18.4,4.3-24-5.7,1.3-10.5,3.6-14.5,6.3,5.1-4.5,9.5-7.9,9.5-8l5.8-1.6,11.2-3.8c.1.9,4.2,20.1-7.6,33.2-5.2,5.8-29.8,18.8-41.5-3.4l6.8,1h0Z"/>
  <path class="cls-4" d="M161.8,146.9c-7.3,11.1-25.8,4.8-25.4-7,0,0,12.3,6.8,23.2-5.7,6.4-7.3,26.8-27.5,54.4-20.8-19.1,4.2-44.4,21.6-52.2,33.5h0Z"/>
  <path class="cls-4" d="M216.5,178.3c-1.8,1-8,7.4-8,17.1,0,4.8.5,29,2.9,43.8-3.6,2.3-6.1,2.8-9.7,5.2-1.8-17.1-3.1-42-2.5-52,.7-11.4,6.8-19.1,12.5-22.4,1.8-1,3.6-2,5.5-3,9.7-5.3,19.8-10.7,19.8-20s-2.8-9.5-5.8-11.9l-.3-.3c-2-1.6-4.2-3.4-5.6-6.4-3.6-8.2-4.2-28.9,0-34.2,2.1-2.6,7.7-11.5,6.1-17.4-.6-2.3-2-3.9-4.4-5.1-2.5-1.3-5.8-1.9-9.9-1.9-8,0-16.9,2.4-21.5,3.9-16.4,5.2-36.2,20.2-41.9,24.7-.2.1-.3.2-.3.2l-3.6,2.5,2.3-3.8c.1-.2,14.5-23.9,40.3-32.6,5-1.7,14.8-4.5,24.5-4.5s10.6,1,14.5,3c4.7,2.4,7.9,6.3,9.2,11.1,3.2,11.9-7.3,25.2-7.7,25.6-1.2,2.2-1.8,18.2,1.1,24.6.4.9,1.5,1.8,2.8,2.8.4.3.9.7,1.4,1.1,4,3,10.1,7.6,10.1,18.2s-14.7,22.3-26.4,28.6c-1.9,1-3.8,2-5.4,3h0Z"/>
  <path class="cls-4" d="M199.1,65.4c-2.3-4-8.3-11.6-22-18.3-15.3-7.5-33.1-11.3-52.8-11.3h0s0,0,0,0h0c-19.7,0-37.4,3.8-52.8,11.3-13.7,6.7-19.7,14.3-22,18.3l-1,1.3,11.8,2.6.4-.5.2-.4c.2-.8,1.8-5,14.9-11.4,14-6.8,30.4-10.3,48.6-10.3,18.2,0,34.6,3.5,48.6,10.3,13.1,6.4,14.7,10.6,14.9,11.4l.2.4.4.5,11.8-2.6-1-1.3h0Z"/>
  <path class="cls-4" d="M214.4,67.1c6.3-5.2,1.6-10.1,2.1-16,.3-3.2.5-6.1,1.6-7.8,5.8-9.2,19.5-11.9,19.6-12l6.4-1.3-4.2-5c-.5-.6-18-17.3-45-8.6-18.9,6.1-32.9,26.8-33.4,27.6l9.5,4.5c.1-.2,11.2-19.6,27.4-24.8,13.1-4.2,25.2-.2,30.3,2.4-5.5,2.2-12.7,6.2-17,13-2,3.2-2.4,7.3-2.7,11.2-.4,5.2-.9,10.1-4.7,13.3l10.2,3.3h0Z"/>
  <path class="cls-4" d="M202.3,64.1l1.3-1.1c3.5-2.9,3.9-7.7,4.4-12.7.3-4,.7-8.2,2.9-11.7,4-6.3,10.3-10.2,15.5-12.6-3.1-1.3-9-3.3-16.2-3.3s-7.9.6-11.6,1.8c-15,4.9-25.7,22.4-26.9,24.4l-.4.7-11.2-5.3.6-.9c.1-.2,14.2-21.6,33.9-28,5.3-1.7,10.6-2.6,15.8-2.6,19,0,30.2,11.3,30.3,11.4l5.3,6.2-8,1.6c-.1,0-13.5,2.8-19,11.5-.9,1.5-1.1,4.3-1.4,7.4-.1,1.8.2,3.6.6,5.3.8,3.7,1.6,7.5-3,11.4l-.4.3-12.3-4.1h0Z"/>
  <path class="cls-4" d="M189.4,57.2s2.6-11.1,9.6-16.8c9.9-7.9,22.1-3.7,22.2-3.7l1.8-5.5c-.6-.2-14.5-4.6-27.3,4.4-12.9,9-14.4,17.2-14.6,18.2l8.2,3.3h0Z"/>
  <path class="cls-4" d="M180.1,54.5v-.7c.2-.9,1.9-9.5,15.1-18.8,5.4-3.8,11.9-5.8,18.8-5.8s8.9,1.1,9.3,1.3l.9.3-2.4,7.3-.9-.3c-.3-.1-3.4-1.1-7.5-1.1s-9.9,1.6-13.8,4.6c-6.7,5.4-9.2,16.1-9.3,16.2l-.2,1.1-10-4h0ZM220.6,35.6l1.2-3.6c-1.4-.4-4.2-.9-7.8-.9-6.6,0-12.5,1.8-17.7,5.5-10.8,7.6-13.4,14.5-14,16.8l6.5,2.6c.9-3,3.7-11.4,9.7-16.2,4.1-3.3,9.3-5,15-5s5.9.6,7.2.9h0ZM147.4,292.6c-4.9-5.3-7.8-10.9-8.5-12.7-.4-1-.9-2.9.6-4.4,1.1-1.1,3.1-1.7,5.8-1.7h4.2c4.4,0,9.5,0,12.5,0h2.6c3.6,0,5.4,1,6.2,1.9,1.2,1.2,1.4,3,.6,5.2-2.3,5.8-7.4,10.6-9,11.9-2,1.7-4.9,2.8-7.7,2.8s-5.4-1-7.2-2.9h0ZM151.6,147.6l10.2-.7s-2.6,4.6-4.3,10.5c-1.9,6.7,1.7,16.5,1.7,16.5,0,0-13.6-15.4-7.6-26.4h0Z"/>
  <path class="cls-5" d="M124.2,111.2c-6.5,0-14.9-.2-21.3-4.7,0,0,8.3,14.6,21.3,14.6v-1.8s0,1.8,0,1.8c13,0,21.3-14.6,21.3-14.6-6.3,4.6-14.8,4.7-21.3,4.7h0Z"/>
  <path class="cls-4" d="M142.1,111.1c-6.5,3.9-12.3,5.3-17.9,5.4-5.5-.1-11.4-1.5-17.9-5.4,0,0,9.5,11.6,17.8,11.7h0s0,0,0,0c0,0,0,0,0,0,8.3,0,17.8-11.7,17.8-11.7h0ZM164.3,322.4l-.7-9.4c30.6-2.4,40.2-31.6,40.2-34.7h9.5c0,7.1-12.8,41.4-49,44.2h0Z"/>
  <path class="cls-6" d="M174.5,261c.6-3.3.6-6.4,0-9.4,2.8-2.1,7.7-2.8,11.4-4.1,3-1.9,18.6,2,29.8-11.7,14.1-17.1,11.1-27.2,11.1-27.2,3.6,4,7.1,2.5,12.6,21.2,5.5,18.7-2.6,31.8-17.7,44.9-7.1,6.2-17.2,8.7-25.9,9.7,2.9-2.9-5-3.2-10.4-5.2.4-4.4-.3-8.6-3.6-12.1-2-2.1-4.5-3.3-7.1-4.3-.1-.3-.3-.6-.4-1,0-.3.2-.6.2-.9h0Z"/>
  <path class="cls-1" d="M185.5,279.1c.3-.9.6-1.9.8-2.8.3-1,1.5-4,0-.6.4-.9.7-1.7.8-2.6,24.5,0,45.8-16.8,41.7-52.2,3.2-4.3,7.7,8.6,7.7,8.6,0,0,12.3,35.6-19.4,49.4-10.5,4.6-19.9,7.9-22.1,6.6-4.6.9-8.7-2.3-10.3-4.4.3-.6.6-1.3.8-1.9h0Z"/>
  <path class="cls-4" d="M174.9,255.9c0-3-.6-5.9-2.1-8.8-.1-.2-.2-.4-.3-.6,9.4,0,20.3-1,29.5-4.7,10.2-4.1,22.9-18,25-34.3,0,0,19.1,14.8,13.5,46.3-5.3,29.7-30.1,39.3-58.4,41,0-.2,3.2-6.8,2.2-10.8,16.1,1.2,34-5,42.7-19.3,7.9-13.1,5.7-35.4,2.5-38.6-8,25.1-36.6,30.2-54.6,29.8h0Z"/>
  <path class="cls-4" d="M186.4,263.3c-3.4-3.7-9.6-8-23.9-8h-38.2s0,0,0,0c-11,0-38.2,0-38.2,0-14.3,0-20.6,4.4-23.9,8-4.9,5.3-5.7,12.7-2.3,22,9.1,24.6,21.8,49.6,64.4,49.7h0s0,0,0,0c0,0,0,0,0,0,42.6,0,55.4-25,64.4-49.7,3.4-9.2,2.6-16.6-2.3-22h0ZM179.7,283.6c-4.3,12.4-15.9,42.3-55.5,42.4-39.6,0-51.2-30-55.5-42.4-2.4-6.9-2.2-11.9.6-15.1,1.9-2.2,6.2-4.7,16.1-4.7h10.3c7.6,0,17.2,0,28.5,0,11.3,0,20.9,0,28.5,0h10.3c9.9,0,14.2,2.6,16.1,4.7,2.8,3.1,2.9,8.2.6,15.1h0Z"/>
  <path class="cls-4" d="M172,237.9c5.1,14.9,15.5,27,15.5,27,0,0-14.3-.7-15.1-3.2-.6-1.9-12.9-30.8-17.6-64.6,4.5,7.3,16.8,39.4,17.3,40.7h0Z"/>
</svg>